# xmcd
#
# Track frame offsets: 
#        150
#        19228
#        38303
#        56592
#        80768
#        97858
#        118189
#        140737
#        165434
#        177792
#        187410
#        208850
#        234216
#        254482
#        271918
#        282187
#        308476
#
# Disc length: 4454 seconds
#
# Revision: 1
# Processed by: cddbd v1.5.2PL0 Copyright (c) Steve Scherf et al.
# Submitted via: ExactAudioCopy v0.99pb4
#
DISCID=e9116411
DTITLE=Various Artist - World 2006 [CD2) BBC Radio
DYEAR=2006
DGENRE=World
TTITLE0=Amadou and Mariam - Djanfa (Mali)
TTITLE1=Moussu Y e Lei Jovents - Bolega Banjo (France)
TTITLE2=Ry Cooder - Muy Fifi (USA)
TTITLE3=Ali Farka Toure - Penda Yoro (Mali)
TTITLE4=Souad Massi - Inspiration (Ilham) (Algeria - France)
TTITLE5=Gal Costa  - Voyeur (Brazil)
TTITLE6=Kekele - Tubela (Congo)
TTITLE7=Lilijana Buttler - Otkako Sam Tudja Zena (Yugoslavia)
TTITLE8=Leningrad - Kto Kogo (Russia)
TTITLE9=Howe Gelb and Voices Of Praise - Paradise Here Abouts (USA - Can
TTITLE9=ada)
TTITLE10=Marta Topferova - Semana Azul (Czech Republic - USA)
TTITLE11=Bogdan Lobel - Ulica Zachodzacego Slonca (Sunset Street) (Pla
TTITLE11=nd)
TTITLE12=Aiwa - Entronic (France - Iraq)
TTITLE13=Titi Robin - Amantito (France)
TTITLE14=Camille - Jolie Bruine (France)
TTITLE15=Cheb I Sabbah feat Cheba Zahounia - Esh 'Dani, Alash Mshit (W
TTITLE15=hy Did I Follow Him?) edit (Algeria - USA -  Morocco)
TTITLE16=Noor  - Akhian Ni Akhian (Pakistan)
EXTD=
EXTT0=
EXTT1=
EXTT2=
EXTT3=
EXTT4=
EXTT5=
EXTT6=
EXTT7=
EXTT8=
EXTT9=
EXTT10=
EXTT11=
EXTT12=
EXTT13=
EXTT14=
EXTT15=
EXTT16=
PLAYORDER=
